<svg width="42" height="42" viewBox="0 0 42 42" fill="none" xmlns="http://www.w3.org/2000/svg">
<g clip-path="url(#clip0_57_82)">
<path d="M29.3288 7.06451L20.9905 15.4315L12.6234 7.09321C11.5967 6.07002 9.93433 6.07288 8.91114 7.09959L7.05818 8.95893C6.035 9.98563 6.03785 11.648 7.06456 12.6712L15.4316 21.0096L7.09326 29.3766C6.07007 30.4033 6.07293 32.0657 7.09964 33.0889L8.95898 34.9419C9.98568 35.9651 11.6481 35.9622 12.6713 34.9355L21.0096 26.5685L29.3767 34.9068C30.4034 35.93 32.0658 35.9271 33.089 34.9004L34.9419 33.0411C35.9651 32.0144 35.9623 30.352 34.9355 29.3288L26.5685 20.9904L34.9068 12.6234C35.93 11.5967 35.9272 9.93428 34.9005 8.91109L33.0411 7.05813C32.0144 6.03495 30.352 6.0378 29.3288 7.06451Z" fill="black"/>
</g>
<defs>
<clipPath id="clip0_57_82">
<rect width="42" height="42" fill="white"/>
</clipPath>
</defs>
</svg>
