<svg width="26" height="26" viewBox="0 0 26 26" fill="none" xmlns="http://www.w3.org/2000/svg">
<path d="M25.1817 21.6666L20.3135 16.7984C20.0938 16.5787 19.7959 16.4566 19.4834 16.4566H18.6875C20.0352 14.733 20.836 12.565 20.836 10.2066C20.836 4.59625 16.2901 0.050354 10.6797 0.050354C5.06938 0.050354 0.523483 4.59625 0.523483 10.2066C0.523483 15.817 5.06938 20.3629 10.6797 20.3629C13.0381 20.3629 15.2061 19.5621 16.9297 18.2144V19.0103C16.9297 19.3228 17.0518 19.6207 17.2715 19.8404L22.1397 24.7086C22.5987 25.1675 23.3409 25.1675 23.795 24.7086L25.1768 23.3267C25.6358 22.8677 25.6358 22.1255 25.1817 21.6666ZM10.6797 16.4566C7.22759 16.4566 4.42973 13.6636 4.42973 10.2066C4.42973 6.75446 7.2227 3.9566 10.6797 3.9566C14.1319 3.9566 16.9297 6.74957 16.9297 10.2066C16.9297 13.6588 14.1368 16.4566 10.6797 16.4566Z" fill="url(#paint0_linear_82_37)"/>
<defs>
<linearGradient id="paint0_linear_82_37" x1="-5.19038" y1="6.30096" x2="27.462" y2="40.0241" gradientUnits="userSpaceOnUse">
<stop offset="0.268864" stop-color="#EAE7F8"/>
<stop offset="0.782291" stop-color="#FFDECB"/>
</linearGradient>
</defs>
</svg>
